<svg width="85" height="85" xmlns="http://www.w3.org/2000/svg">
 <!-- Created with UXWing SVG Editor - https://uxwing.com/svg-icon-editor/ -->

 <g>
  <title>background</title>
  <rect fill="none" id="canvas_background" height="87" width="87" y="-1" x="-1"/>
  <g display="none" overflow="visible" y="0" x="0" height="100%" width="100%" id="canvasGrid">
   <rect fill="url(#gridpattern)" stroke-width="0" y="0" x="0" height="100%" width="100%"/>
  </g>
 </g>
 <g>
  <title>Layer 1</title>
  <style transform="matrix(1.9290121985070527,0,0,1.9290121985070527,0,0) " type="text/css">
   <![CDATA[
	.st0{fill-rule:evenodd;clip-rule:evenodd;}
]]>
  </style>
  <g stroke="null" id="svg_7">
   <g stroke="null" transform="matrix(2.3114679480386293,0,0,2.4631585380322463,-27.255866255727597,-38.88678591975622) " id="svg_5">
    <path stroke="null" id="svg_6" d="m154.771277,135.211743l37.6,0l0,44.03c-0.07,1.23 -1.66,1.26 -3.38,1.18l-34.8,0c-2.38,0 -4.32,1.94 -4.32,4.31c0,2.38 1.94,4.32 4.32,4.32l36.38,0l0,-4.59l3.38,0l0,5.84c0,1.06 -0.87,1.93 -1.93,1.93l-37.67,0c-4.27,1.58 -7.77,-1.91 -7.77,-6.19l0,-42.65c0,-4.5 3.68,-8.18 8.19,-8.18l0,0zm-44.81,26.76c-1.86,0 -3.35,-1.5 -3.35,-3.34c0,-1.85 1.51,-3.34 3.35,-3.34l8.15,0c1.86,0 3.35,1.5 3.35,3.34c0,1.85 -1.5,3.34 -3.35,3.34l-8.15,0l0,0l0,0l0,0zm-17.34,-3.34c0,-1.85 1.51,-3.34 3.34,-3.34l0.74,0c1.86,0 3.34,1.5 3.34,3.34c0,1.85 -1.5,3.34 -3.34,3.34l-0.74,0c-1.85,0 -3.34,-1.49 -3.34,-3.34l0,0zm0,-54.72c0,-1.85 1.51,-3.34 3.34,-3.34l0.88,0c1.86,0 3.35,1.5 3.35,3.34c0,1.85 -1.5,3.34 -3.35,3.34l-0.88,0c-1.84,0 -3.34,-1.5 -3.34,-3.34l0,0zm3.34,30.7c-1.86,0 -3.34,-1.5 -3.34,-3.35c0,-1.85 1.51,-3.34 3.34,-3.34l0.88,0c1.86,0 3.35,1.5 3.35,3.34c0,1.85 -1.5,3.35 -3.35,3.35l-0.88,0l0,0zm14,-27.36c-1.86,0 -3.35,-1.51 -3.35,-3.34c0,-1.85 1.51,-3.34 3.35,-3.34l37.93,0c1.86,0 3.34,1.5 3.34,3.34c0,1.85 -1.5,3.34 -3.34,3.34l-37.93,0l0,0l0,0l0,0zm-31.13,-34.45l87.85,0c2.14,0 4.09,0.87 5.49,2.27c1.39,1.4 2.27,3.34 2.27,5.49l0,41.15l-6.67,0l0,-41.12c0,-0.3 -0.12,-0.57 -0.32,-0.78c-0.2,-0.19 -0.48,-0.32 -0.78,-0.32l0,0l-87.84,0c-0.3,0 -0.58,0.12 -0.78,0.32c-0.21,0.19 -0.31,0.48 -0.31,0.78l0,101.23c0,0.3 0.12,0.57 0.32,0.78c0.19,0.21 0.47,0.32 0.78,0.32l52.77,0c0.63,2.45 1.33,4.6 2.29,6.64l-55.07,0c-2.15,0 -4.09,-0.87 -5.49,-2.27c-1.41,-1.39 -2.28,-3.34 -2.28,-5.48l0,-101.24c0,-2.14 0.87,-4.1 2.27,-5.5c1.39,-1.4 3.35,-2.27 5.5,-2.27l0,0l0,0l0,0zm31.13,61.81c-1.86,0 -3.35,-1.5 -3.35,-3.35c0,-1.85 1.51,-3.34 3.35,-3.34l24.96,0c1.86,0 3.34,1.5 3.34,3.34c0,1.85 -1.5,3.35 -3.34,3.35l-24.96,0l0,0l0,0l0,0zm46.33,6.99l1.36,0c0.7,0 1.27,0.46 1.27,1.03l0,32.17c0,0.56 -0.57,1.03 -1.27,1.03l-1.36,0c-0.7,0 -1.27,-0.46 -1.27,-1.03l0,-32.17c0,-0.57 0.57,-1.03 1.27,-1.03l0,0z" class="st0"/>
   </g>
  </g>
  <style transform="matrix(0.0531658729470772,0,0,0.0531658729470772,0,0) " type="text/css">
   <![CDATA[
	.st0{fill-rule:evenodd;clip-rule:evenodd;}
]]>
  </style>
  <!-- Created with UXWing SVG Editor - https://uxwing.com/svg-icon-editor/ -->
  <!-- Created with UXWing SVG Editor - https://uxwing.com/svg-icon-editor/ -->
  <!-- Created with UXWing SVG Editor - https://uxwing.com/svg-icon-editor/ -->
  <g stroke="null" id="svg_107">
   <g stroke="null" transform="rotate(-0.9322315454483032 -90.6403808593747,-37.55139541626019) matrix(0.9205545047559804,0,0,0.9248450374930642,-168.68135858629302,-197.16093136770127) " id="svg_104">
    <title stroke="null" transform="translate(-0.7261396050453186,1.1489366292953491) translate(0.18708521127700806,-0.1832125037908554) translate(-30.119651794433594,-23.623600006103516) translate(0.26725369691848755,-0.33155712485313416) translate(-24.733354568481445,-18.498044967651367) translate(-173.13348388671875,-121.77879333496094) translate(1.1135063171386719,-1.658328652381897) translate(269.42083740234375,0) translate(0,295.0043640136719) ">background</title>
    <rect stroke="null" x="41.276053" y="129.079764" width="87" height="87" id="svg_102" fill="none"/>
    <g stroke="null" id="svg_101" display="none">
     <rect stroke="null" id="svg_105" width="85" height="85" x="42.276053" y="130.079764" stroke-width="0" fill="url(#gridpattern)"/>
    </g>
   </g>
   <g stroke="null" id="svg_106">
    <title stroke="null" transform="translate(0.0057101477868855,-0.013916161842644215) translate(0.18708521127700806,-0.1832125037908554) translate(-30.119651794433594,-23.623600006103516) translate(0.26725369691848755,-0.33155712485313416) translate(-24.733354568481445,-18.498044967651367) translate(-173.13348388671875,-121.77879333496094) translate(1.1135063171386719,-1.658328652381897) translate(269.42083740234375,0) translate(0,295.0043640136719) matrix(0.9204326584812669,-0.014977230305902065,0.015047036381051685,0.9247226233156052,-173.40617039684,-205.1324833974596) ">Layer 1</title>
    <defs stroke="null" transform="translate(0.0057101477868855,-0.013916161842644215) translate(0.18708521127700806,-0.1832125037908554) translate(-30.119651794433594,-23.623600006103516) translate(0.26725369691848755,-0.33155712485313416) translate(-24.733354568481445,-18.498044967651367) translate(-173.13348388671875,-121.77879333496094) translate(1.1135063171386719,-1.658328652381897) translate(269.42083740234375,0) translate(0,295.0043640136719) ">
     <style stroke="null">.cls-1{fill-rule:evenodd;}</style>
    </defs>
    <g transform="matrix(1.165362247952404,-0.017834956539670835,0.019051092962061478,1.1011640644655827,-216.85718992845375,-231.73245807156601) " stroke="null" id="svg_99">
     <path stroke="null" class="cls-1" d="m212.2565,281.229882l-5.214125,1.755569l5.214125,1.780295l0,4.116933l-6.896991,-3.504956c-3.020882,-1.533032 -3.04847,-3.20824 0,-4.753636l6.896991,-3.511138l0,4.116933zm-4.089916,-19.360711c5.02101,5.056533 16.394148,4.166385 20.594416,0a39.236983,35.167012 0 0 1 -2.91053,-3.523501l-0.579347,-0.754153a12.069735,10.817766 0 0 1 -6.986652,1.854474a11.724885,10.508687 0 0 1 -7.641866,-2.472632c-0.57245,1.533032 -1.379398,3.640951 -2.220831,4.648549a1.241458,1.112685 0 0 1 -0.255189,0.222537l0,0.024726l-0.000001,0zm19.546073,8.938566l-39.754257,0a2.758796,2.472632 0 0 0 -2.572578,2.880617l2.434638,16.875715l-6.207292,0c0,-9.012745 -3.565744,-20.065411 6.959064,-25.344481c3.917491,-1.959561 14.014686,-2.62099 18.414967,-5.211072a37.298929,33.429988 0 0 0 1.869085,-4.376559c0.048279,-0.135995 -0.034485,0.086542 0.041382,-0.11745a38.623151,34.616852 0 0 1 -4.207165,-5.211072l-3.627817,-5.12453c-1.331119,-1.774114 -2.020818,-3.399869 -2.069097,-4.728909a4.138195,3.708948 0 0 1 0.393129,-1.712298a3.496775,3.134061 0 0 1 1.248355,-1.298132a4.53822,4.06748 0 0 1 0.875918,-0.401803a92.247258,82.678641 0 0 1 -0.172425,-9.272371a14.262978,12.783509 0 0 1 0.448304,-2.107919c1.344913,-4.228201 5.407241,-7.318991 10.069607,-8.765481c2.262213,-0.698519 1.386295,-2.367545 3.68989,-2.262459c5.421035,0.265808 13.793982,3.393688 16.987289,6.713197c4.496838,4.648549 3.338144,10.372692 3.18641,16.07211l0,0a2.641548,2.367545 0 0 1 1.896673,1.749387c0.289674,1.026142 0,2.472632 -1.000064,4.444556l0,0s0,0.067997 -0.062073,0.105087l-4.138195,6.10122c-1.593205,2.355182 -3.213998,4.710364 -5.372756,6.527749l-0.110352,0.086542l0.689699,0.865421c0.689699,0.945782 1.531132,2.021377 2.289801,2.862072c4.496838,2.472632 14.380227,3.177332 18.249439,5.105986c9.655788,4.833996 6.365923,16.770628 6.896991,25.344481l-6.145219,0l2.434638,-16.875715a2.758796,2.472632 0 0 0 -2.572578,-2.880617l-21.063411,0l0,-0.043271l0,-0.000001zm-24.139469,-32.274033a3.62092,3.24533 0 0 0 -1.820806,0.451255a1.517338,1.359948 0 0 0 -0.524171,0.543979a2.227728,1.996651 0 0 0 -0.165528,0.871603c0.034485,0.989053 0.613832,2.281003 1.731145,3.770764l0,0l0,0l3.627817,5.173983c1.455265,2.07083 2.986397,4.18493 4.876173,5.736507a9.966152,8.932384 0 0 0 7.007343,2.54063a10.262723,9.198192 0 0 0 7.365987,-2.62099c1.958746,-1.6443 3.496775,-3.888214 5.02101,-6.13831l4.083019,-6.033223c0.765566,-1.557758 1.041446,-2.602445 0.869021,-3.20824c-0.103455,-0.364713 -0.551759,-0.543979 -1.317325,-0.581069q-0.248292,0 -0.496583,0a5.517593,4.945265 0 0 0 -0.57245,0a1.206973,1.081777 0 0 1 -0.317262,0a5.579666,5.000899 0 0 1 -1.117313,-0.055634l1.379398,-5.563423c-10.386869,1.465035 -18.159778,-5.452154 -29.139788,-1.384674l0.793154,6.57102a6.207292,5.563423 0 0 1 -1.255252,-0.049453l-0.027588,-0.024726l-0.000001,0.000001zm20.394403,42.652906l5.214125,1.755569l-5.214125,1.780295l0,4.116933l6.896991,-3.504956c3.020882,-1.533032 3.041573,-3.20824 0,-4.753636l-6.896991,-3.511138l0,4.116933zm-5.952103,8.858205l-3.448496,0l4.262341,-14.872883l3.448496,0l-4.262341,14.872883z" id="svg_100" fill="#037fff"/>
    </g>
    <!-- Created with UXWing SVG Editor - https://uxwing.com/svg-icon-editor/ -->
    <g transform="matrix(0.9204326584812669,-0.014977230305902065,0.015047036381051685,0.9247226233156052,-171.92396338245626,-194.78381724629156) " stroke="null" id="svg_91">
     <g stroke="null" id="svg_95" transform="matrix(0.16259538238402324,0,0,0.16454089454023074,-2127.487148262411,-2158.12614798512) ">
      <title stroke="null" transform="translate(0.03511875867843628,-0.08457570523023605) translate(1.1506181955337524,-1.1134769916534424) translate(-185.2429656982422,-143.57281494140625) translate(1.643673300743103,-2.0150439739227295) translate(-152.115966796875,-112.42217254638672) translate(-1064.811767578125,-740.1126098632812) translate(6.848326683044434,-10.078519821166992) translate(1657.0018310546875,1.8189894035458565e-12) translate(0,1792.8939208984375) ">background</title>
      <rect stroke="null" fill="none" id="svg_98" height="514" width="514" y="13897.797073" x="13353.441729"/>
      <g stroke="null" display="none" id="svg_96">
       <rect stroke="null" fill="url(#gridpattern)" stroke-width="0" y="13898.797073" x="13354.441729" height="85" width="85" id="svg_97"/>
      </g>
     </g>
     <g stroke="null" id="svg_92" transform="matrix(0.16259538238402324,0,0,0.16454089454023074,-2127.487148262411,-2158.12614798512) ">
      <title stroke="null" transform="translate(0.03511875867843628,-0.08457570523023605) translate(1.1506181955337524,-1.1134769916534424) translate(-185.2429656982422,-143.57281494140625) translate(1.643673300743103,-2.0150439739227295) translate(-152.115966796875,-112.42217254638672) translate(-1064.811767578125,-740.1126098632812) translate(6.848326683044434,-10.078519821166992) translate(1657.0018310546875,1.8189894035458565e-12) translate(0,1792.8939208984375) ">Layer 1</title>
      <defs stroke="null" transform="translate(0.03511875867843628,-0.08457570523023605) translate(1.1506181955337524,-1.1134769916534424) translate(-185.2429656982422,-143.57281494140625) translate(1.643673300743103,-2.0150439739227295) translate(-152.115966796875,-112.42217254638672) translate(-1064.811767578125,-740.1126098632812) translate(6.848326683044434,-10.078519821166992) translate(1657.0018310546875,1.8189894035458565e-12) translate(0,1792.8939208984375) ">
       <style stroke="null">.cls-1{fill-rule:evenodd;}</style>
      </defs>
      <g stroke="null" id="svg_93">
       <path stroke="null" fill="#037fff" id="svg_94" d="m13589.036376,14271.531559l-19.065348,7.162115l19.065348,7.26299l0,16.795664l-25.218714,-14.299011c-11.045797,-6.254241 -11.146672,-13.088513 0,-19.393191l25.218714,-14.32423l0,16.795664l0,-0.000001zm-14.954697,-78.985012c18.359224,20.628908 59.944883,16.997413 75.30308,0a143.469264,143.469264 0 0 1 -10.642297,-14.374667l-2.118372,-3.076683a44.13275,44.13275 0 0 1 -25.546557,7.565614a42.871814,42.871814 0 0 1 -27.942335,-10.087486c-2.093153,6.254241 -5.043743,14.853823 -8.120426,18.964473a4.539369,4.539369 0 0 1 -0.933092,0.907874l0,0.100875l-0.000001,0zm71.469836,36.46626l-145.360668,0a10.087486,10.087486 0 0 0 -9.40658,11.751921l8.902206,68.847089l-22.696843,0c0,-36.768885 -13.038075,-81.859946 25.445682,-103.396727c14.32423,-7.994332 51.244427,-10.692735 67.333966,-21.259376a136.382805,136.382805 0 0 0 6.834271,-17.85485c0.176531,-0.554812 -0.126094,0.353062 0.151312,-0.479156a141.224799,141.224799 0 0 1 -15.383416,-21.259376l-13.265044,-20.906314c-4.867212,-7.237771 -7.389083,-13.870293 -7.565614,-19.292316a15.131228,15.131228 0 0 1 1.437467,-6.985584a12.785888,12.785888 0 0 1 4.564587,-5.29593a16.593914,16.593914 0 0 1 3.202777,-1.639216a337.3003,337.3003 0 0 1 -0.630468,-37.828071a52.152301,52.152301 0 0 1 1.639216,-8.599581c4.917649,-17.2496 19.771472,-29.858957 36.819322,-35.760136c8.271738,-2.849715 5.068962,-9.658767 13.492012,-9.230049c19.821909,1.084405 50.437428,13.845074 62.113693,27.387523c16.442602,18.964473 12.205858,42.317002 11.651046,65.568656l0,0a9.658767,9.658767 0 0 1 6.935146,7.136896c1.059186,4.186307 0,10.087486 -3.656714,18.132255l0,0s0,0.277406 -0.226968,0.428718l-15.131228,24.890871c-5.825523,9.60833 -11.751921,19.21666 -19.645378,26.630962l-0.403499,0.353062l2.521871,3.53062c2.521871,3.858463 5.598555,8.246519 8.372613,11.676265c16.442602,10.087486 52.581019,12.962419 66.728717,20.830658c35.3062,19.721034 23.276873,68.418371 25.218714,103.396727l-22.469874,0l8.902206,-68.847089a10.087486,10.087486 0 0 0 -9.40658,-11.751921l-77.017953,0l0,-0.176531l0.000003,0zm-88.265499,-131.666906a13.239825,13.239825 0 0 0 -6.657741,1.840966a5.548117,5.548117 0 0 0 -1.916622,2.219247a8.145645,8.145645 0 0 0 -0.605249,3.555839c0.126094,4.034994 2.244466,9.305705 6.329897,15.383416l0,0l0,0l13.265044,21.108064c5.321149,8.448269 10.919703,17.073069 17.829631,23.402967a36.441042,36.441042 0 0 0 25.622213,10.364891a37.525446,37.525446 0 0 0 26.933587,-10.692735c7.162115,-6.708178 12.785888,-15.862571 18.359224,-25.042183l14.929479,-24.613465c2.799277,-6.355116 3.808026,-10.617079 3.177558,-13.088513c-0.378281,-1.487904 -2.017497,-2.219247 -4.816774,-2.370559q-0.907874,0 -1.815747,0a20.174971,20.174971 0 0 0 -2.093153,0a4.413275,4.413275 0 0 1 -1.160061,0a20.40194,20.40194 0 0 1 -4.085432,-0.226968l5.043743,-22.696843c-37.979383,5.976835 -66.400874,-22.242906 -106.549067,-5.648992l2.900152,26.807493a22.696843,22.696843 0 0 1 -4.589806,-0.20175l-0.100875,-0.100875l-0.000001,0zm74.571737,174.009127l19.065348,7.162115l-19.065348,7.26299l0,16.795664l25.218714,-14.299011c11.045797,-6.254241 11.121453,-13.088513 0,-19.393191l-25.218714,-14.32423l0,16.795664l0,-0.000001zm-21.76375,36.138417l-12.609357,0l15.585165,-60.676226l12.609357,0l-15.585165,60.676226z" class="cls-1"/>
      </g>
     </g>
    </g>
   </g>
  </g>
 </g>
</svg>