<svg width="85" height="85" xmlns="http://www.w3.org/2000/svg">
 <!-- Created with UXWing SVG Editor - https://uxwing.com/svg-icon-editor/ -->

 <g>
  <title>background</title>
  <rect fill="none" id="canvas_background" height="87" width="87" y="-1" x="-1"/>
  <g display="none" overflow="visible" y="0" x="0" height="100%" width="100%" id="canvasGrid">
   <rect fill="url(#gridpattern)" stroke-width="0" y="0" x="0" height="100%" width="100%"/>
  </g>
 </g>
 <g>
  <title>Layer 1</title>
  <style transform="matrix(1.9290121985070527,0,0,1.9290121985070527,0,0) " type="text/css">
   <![CDATA[
	.st0{fill-rule:evenodd;clip-rule:evenodd;}
]]>
  </style>
  <g stroke="null" id="svg_7">
   <g stroke="null" transform="matrix(2.3114679480386293,0,0,2.4631585380322463,-27.255866255727597,-38.88678591975622) " id="svg_5">
    <path stroke="null" id="svg_6" d="m154.771277,135.211743l37.6,0l0,44.03c-0.07,1.23 -1.66,1.26 -3.38,1.18l-34.8,0c-2.38,0 -4.32,1.94 -4.32,4.31c0,2.38 1.94,4.32 4.32,4.32l36.38,0l0,-4.59l3.38,0l0,5.84c0,1.06 -0.87,1.93 -1.93,1.93l-37.67,0c-4.27,1.58 -7.77,-1.91 -7.77,-6.19l0,-42.65c0,-4.5 3.68,-8.18 8.19,-8.18l0,0zm-44.81,26.76c-1.86,0 -3.35,-1.5 -3.35,-3.34c0,-1.85 1.51,-3.34 3.35,-3.34l8.15,0c1.86,0 3.35,1.5 3.35,3.34c0,1.85 -1.5,3.34 -3.35,3.34l-8.15,0l0,0l0,0l0,0zm-17.34,-3.34c0,-1.85 1.51,-3.34 3.34,-3.34l0.74,0c1.86,0 3.34,1.5 3.34,3.34c0,1.85 -1.5,3.34 -3.34,3.34l-0.74,0c-1.85,0 -3.34,-1.49 -3.34,-3.34l0,0zm0,-54.72c0,-1.85 1.51,-3.34 3.34,-3.34l0.88,0c1.86,0 3.35,1.5 3.35,3.34c0,1.85 -1.5,3.34 -3.35,3.34l-0.88,0c-1.84,0 -3.34,-1.5 -3.34,-3.34l0,0zm3.34,30.7c-1.86,0 -3.34,-1.5 -3.34,-3.35c0,-1.85 1.51,-3.34 3.34,-3.34l0.88,0c1.86,0 3.35,1.5 3.35,3.34c0,1.85 -1.5,3.35 -3.35,3.35l-0.88,0l0,0zm14,-27.36c-1.86,0 -3.35,-1.51 -3.35,-3.34c0,-1.85 1.51,-3.34 3.35,-3.34l37.93,0c1.86,0 3.34,1.5 3.34,3.34c0,1.85 -1.5,3.34 -3.34,3.34l-37.93,0l0,0l0,0l0,0zm-31.13,-34.45l87.85,0c2.14,0 4.09,0.87 5.49,2.27c1.39,1.4 2.27,3.34 2.27,5.49l0,41.15l-6.67,0l0,-41.12c0,-0.3 -0.12,-0.57 -0.32,-0.78c-0.2,-0.19 -0.48,-0.32 -0.78,-0.32l0,0l-87.84,0c-0.3,0 -0.58,0.12 -0.78,0.32c-0.21,0.19 -0.31,0.48 -0.31,0.78l0,101.23c0,0.3 0.12,0.57 0.32,0.78c0.19,0.21 0.47,0.32 0.78,0.32l52.77,0c0.63,2.45 1.33,4.6 2.29,6.64l-55.07,0c-2.15,0 -4.09,-0.87 -5.49,-2.27c-1.41,-1.39 -2.28,-3.34 -2.28,-5.48l0,-101.24c0,-2.14 0.87,-4.1 2.27,-5.5c1.39,-1.4 3.35,-2.27 5.5,-2.27l0,0l0,0l0,0zm31.13,61.81c-1.86,0 -3.35,-1.5 -3.35,-3.35c0,-1.85 1.51,-3.34 3.35,-3.34l24.96,0c1.86,0 3.34,1.5 3.34,3.34c0,1.85 -1.5,3.35 -3.34,3.35l-24.96,0l0,0l0,0l0,0zm46.33,6.99l1.36,0c0.7,0 1.27,0.46 1.27,1.03l0,32.17c0,0.56 -0.57,1.03 -1.27,1.03l-1.36,0c-0.7,0 -1.27,-0.46 -1.27,-1.03l0,-32.17c0,-0.57 0.57,-1.03 1.27,-1.03l0,0z" class="st0"/>
   </g>
  </g>
  <style transform="matrix(0.0531658729470772,0,0,0.0531658729470772,0,0) " type="text/css">
   <![CDATA[
	.st0{fill-rule:evenodd;clip-rule:evenodd;}
]]>
  </style>
  <g stroke="null" id="svg_14">
   <g stroke="null" transform="matrix(0.6797423212647303,0,0,0.6958108535774364,-460.33897280668407,-473.2472406001375) " id="svg_12">
    <path fill="#037fff" stroke="null" id="svg_13" d="m761.27871,744.437519l37.6,0l0,44.03c-0.07,1.23 -1.66,1.26 -3.38,1.18l-34.8,0c-2.38,0 -4.32,1.94 -4.32,4.31c0,2.38 1.94,4.32 4.32,4.32l36.38,0l0,-4.59l3.38,0l0,5.84c0,1.06 -0.87,1.93 -1.93,1.93l-37.67,0c-4.27,1.58 -7.77,-1.91 -7.77,-6.19l0,-42.65c0,-4.5 3.68,-8.18 8.19,-8.18l0,0zm-44.81,26.76c-1.86,0 -3.35,-1.5 -3.35,-3.34c0,-1.85 1.51,-3.34 3.35,-3.34l8.15,0c1.86,0 3.35,1.5 3.35,3.34c0,1.85 -1.5,3.34 -3.35,3.34l-8.15,0l0,0l0,0l0,0zm-17.34,-3.34c0,-1.85 1.51,-3.34 3.34,-3.34l0.74,0c1.86,0 3.34,1.5 3.34,3.34c0,1.85 -1.5,3.34 -3.34,3.34l-0.74,0c-1.85,0 -3.34,-1.49 -3.34,-3.34l0,0zm0,-54.72c0,-1.85 1.51,-3.34 3.34,-3.34l0.88,0c1.86,0 3.35,1.5 3.35,3.34c0,1.85 -1.5,3.34 -3.35,3.34l-0.88,0c-1.84,0 -3.34,-1.5 -3.34,-3.34l0,0zm3.34,30.7c-1.86,0 -3.34,-1.5 -3.34,-3.35c0,-1.85 1.51,-3.34 3.34,-3.34l0.88,0c1.86,0 3.35,1.5 3.35,3.34c0,1.85 -1.5,3.35 -3.35,3.35l-0.88,0l0,0zm14,-27.36c-1.86,0 -3.35,-1.51 -3.35,-3.34c0,-1.85 1.51,-3.34 3.35,-3.34l37.93,0c1.86,0 3.34,1.5 3.34,3.34c0,1.85 -1.5,3.34 -3.34,3.34l-37.93,0l0,0l0,0l0,0zm-31.13,-34.45l87.85,0c2.14,0 4.09,0.87 5.49,2.27c1.39,1.4 2.27,3.34 2.27,5.49l0,41.15l-6.67,0l0,-41.12c0,-0.3 -0.12,-0.57 -0.32,-0.78c-0.2,-0.19 -0.48,-0.32 -0.78,-0.32l0,0l-87.84,0c-0.3,0 -0.58,0.12 -0.78,0.32c-0.21,0.19 -0.31,0.48 -0.31,0.78l0,101.23c0,0.3 0.12,0.57 0.32,0.78c0.19,0.21 0.47,0.32 0.78,0.32l52.77,0c0.63,2.45 1.33,4.6 2.29,6.64l-55.07,0c-2.15,0 -4.09,-0.87 -5.49,-2.27c-1.41,-1.39 -2.28,-3.34 -2.28,-5.48l0,-101.24c0,-2.14 0.87,-4.1 2.27,-5.5c1.39,-1.4 3.35,-2.27 5.5,-2.27l0,0l0,0l0,0zm31.13,61.81c-1.86,0 -3.35,-1.5 -3.35,-3.35c0,-1.85 1.51,-3.34 3.35,-3.34l24.96,0c1.86,0 3.34,1.5 3.34,3.34c0,1.85 -1.5,3.35 -3.34,3.35l-24.96,0l0,0l0,0l0,0zm46.33,6.99l1.36,0c0.7,0 1.27,0.46 1.27,1.03l0,32.17c0,0.56 -0.57,1.03 -1.27,1.03l-1.36,0c-0.7,0 -1.27,-0.46 -1.27,-1.03l0,-32.17c0,-0.57 0.57,-1.03 1.27,-1.03l0,0z" class="st0"/>
   </g>
  </g>
 </g>
</svg>